:SAMPLES-PER-SECOND 24
:FULLY-SPECIFIED
:DEGREES
375
root  0.368129 37.6647 34.886 -171.22 -5.03697 -168.165
RightUpLeg  -30.1218 26.5432 -9.24877
RightLeg  19.0355 15.6784 5.75717
RightFoot  -16.5565 0.679432 17.3199
RightToes  -2.08645e-008 3.77894e-005 6.81332e-007
Spine  22.2758 2.54492 -22.2388
Spine1  -3.40703 -4.05122 21.3441
HEad  -44.7713 -52.2523 33.5864
LeftShoulder1  6.69501 -13.2823 -33.8712
LeftArm  15.4575 13.3441 -13.6395
LeftForeArm  55.8606 -77.7453 -55.7901
LeftHand  -0.881463 -1.83339 14.3076
RightShoulder  4.13442 6.79748 34.2426
RightArm  8.99172 -20.4537 25.8985
RightForeArm  48.2301 74.3736 37.2692
RightHand  -0.928948 8.44523 -8.14321
LeftUpLeg  -25.4519 -17.4926 19.7565
LeftLeg  39.9136 -3.80011 -3.01891
LeftFoot  -25.9329 -0.560403 -5.5895
LeftToes  1.24767e-006 1.47042e-008 1.32732e-009
376
root  -0.87748 37.5746 35.7872 -168.084 2.0826 -163.83
RightUpLeg  -36.2979 20.4434 -6.858
RightLeg  23.5389 12.117 5.44167
RightFoot  -18.1674 0.835868 16.0707
RightToes  -2.08645e-008 3.77894e-005 6.81332e-007
Spine  26.3506 3.42036 -22.7235
Spine1  -4.65402 -4.45935 26.2539
HEad  -48.3462 -46.918 34.2622
LeftShoulder1  7.1575 -13.6948 -35.5759
LeftArm  13.5982 -4.82453 -15.8635
LeftForeArm  26.127 -69.1288 -28.1039
LeftHand  -1.13364 -1.762 18.4783
RightShoulder  4.29175 6.99099 34.9937
RightArm  7.62426 -18.3743 26.2168
RightForeArm  58.9892 77.1405 47.8562
RightHand  -1.07783 7.80041 -9.80765
LeftUpLeg  -28.7719 -7.89142 21.624
LeftLeg  43.1395 -3.73384 -3.33535
LeftFoot  -25.9086 -0.408815 -4.40273
LeftToes  1.24767e-006 1.47042e-008 1.32732e-009
377
root  -2.42393 37.7061 36.2571 -164.581 7.51608 -158.667
RightUpLeg  -43.3923 16.347 -6.88623
RightLeg  34.5872 8.39142 5.93232
RightFoot  -19.9774 0.895978 13.6213
RightToes  -2.08645e-008 3.77894e-005 6.81332e-007
Spine  28.9713 3.11419 -19.2561
Spine1  -3.7109 -5.16983 27.7386
HEad  -50.5215 -43.7276 35.5769
LeftShoulder1  7.2846 -13.8808 -35.8591
LeftArm  14.8679 -26.5352 -21.9274
LeftForeArm  24.2534 -65.6933 -23.185
LeftHand  -1.30445 -2.43965 19.4269
RightShoulder  4.3639 7.09065 35.2857
RightArm  8.65985 -17.2371 25.0658
RightForeArm  80.4745 79.7216 67.1712
RightHand  -1.03036 7.88482 -9.34937
LeftUpLeg  -30.9767 -4.9907 23.8676
LeftLeg  44.592 -0.652023 -0.246541
LeftFoot  -24.1425 -0.229876 -3.33161
LeftToes  1.24767e-006 1.47042e-008 1.32732e-009
378
root  -4.0577 37.9559 36.1047 -160.445 13.2372 -152.928
RightUpLeg  -48.1483 13.5614 -11.1828
RightLeg  43.1837 7.5652 7.25916
RightFoot  -22.5213 1.18211 13.5884
RightToes  -2.08645e-008 3.77894e-005 6.81332e-007
Spine  30.8042 2.31764 -14.9456
Spine1  -3.95821 -5.45174 28.8022
HEad  -49.2576 -43.4073 35.3735
LeftShoulder1  6.84707 -13.6645 -33.8675
LeftArm  22.0998 -43.9401 -37.8789
LeftForeArm  33.5872 -66.3677 -22.7875
LeftHand  -1.39099 -3.77445 17.7769
RightShoulder  4.19357 6.98582 34.0873
RightArm  13.5222 -14.5845 20.7352
RightForeArm  109.31 80.6114 93.6175
RightHand  -1.26977 8.29863 -11.089
LeftUpLeg  -30.6438 -5.67379 25.9774
LeftLeg  44.1051 6.55906 7.17296
LeftFoot  -22.8964 -0.228775 -3.61745
LeftToes  1.24767e-006 1.47042e-008 1.32732e-009
379
root  -5.59751 38.409 35.3383 -154.218 20.1398 -145.404
RightUpLeg  -50.5774 10.5235 -16.8017
RightLeg  44.3469 5.01816 4.95584
RightFoot  -23.3666 1.1948 12.7968
RightToes  -2.08645e-008 3.77894e-005 6.81332e-007
Spine  31.6156 1.82005 -11.3719
Spine1  -5.72934 -5.24462 32.8861
HEad  -46.9819 -44.4209 34.1294
LeftShoulder1  5.60626 -12.8384 -28.2099
LeftArm  32.3077 -52.3083 -59.4882
LeftForeArm  42.7507 -67.5622 -23.0208
LeftHand  -1.44045 -4.45957 17.1588
RightShoulder  3.63268 6.55427 30.2021
RightArm  20.6354 -6.74343 16.3732
RightForeArm  131.062 79.7913 114.48
RightHand  -1.08957 8.34674 -9.53329
LeftUpLeg  -28.3564 -3.94035 28.7053
LeftLeg  42.4118 12.7172 12.543
LeftFoot  -21.7909 -0.227521 -3.90741
LeftToes  1.24767e-006 1.47042e-008 1.32732e-009
